<svg id="Layer_1" xmlns="http://www.w3.org/2000/svg" width="226" height="38" viewBox="-224 379 226 38"><style>.st0{fill:#455a64}.st1{fill:#2673b4}.st2{fill:#0c578a}.st3{fill:#91cbf5}.st4{fill:#3fa8e2}.st5{fill:url(#SVGID_1_)}.st6{fill:url(#SVGID_2_)}.st7{fill:#0d588b}.st8{fill:#fff}.st9{fill:#217db4}.st10{fill:#cfdfef}.st11{fill:#fefefd}</style><path id="computer-icon" class="st0" d="M-224 379v23.2h30.1V379H-224zm27 20.2h-23.9V382h23.9v17.2zm-7.7 4.9l3 3h-14.7l3-3h8.7z"/><path id="tablet-icon" class="st0" d="M-174.2 399.2v-18.5c0-1-.8-1.7-1.7-1.7h-13.3c-1 0-1.7.8-1.7 1.7v18.5c0 1 .8 1.7 1.7 1.7h13.4c.8 0 1.6-.8 1.6-1.7zm-14.8-.8v-17.1h12.6v17.1H-189zm5.9 1.3c0-.2.2-.4.4-.4s.4.2.4.4-.2.4-.4.4-.4-.2-.4-.4z"/><path id="tablet-icon_1_" class="st0" d="M-149.7 379h-18.5c-1 0-1.7.8-1.7 1.7v13.4c0 1 .8 1.7 1.7 1.7h18.5c1 0 1.7-.8 1.7-1.7v-13.4c0-1-.8-1.7-1.7-1.7zm-.7 14.7h-17.2v-12.6h17.1v12.6h.1zm1.2-5.9c-.2 0-.4-.2-.4-.4s.2-.4.4-.4.4.2.4.4-.2.4-.4.4z"/><path id="smartphone-4-icon" class="st0" d="M-135.7 379h-7.7c-.9 0-1.6.8-1.6 1.6v16.9c0 .9.8 1.6 1.6 1.6h7.7c.9 0 1.6-.8 1.6-1.6v-16.9c.1-.8-.7-1.6-1.6-1.6zm-4.7 1.4h1.8c.1 0 .3.1.3.3 0 .1-.1.3-.3.3h-1.8c-.1 0-.3-.1-.3-.3 0-.1.2-.3.3-.3zm.9 17.8c-.4 0-.8-.4-.8-.8s.4-.8.8-.8.8.4.8.8-.4.8-.8.8zm4.2-2.4h-8.4v-13.4h8.4v13.4z"/><path id="smartphone-4-icon_1_" class="st0" d="M-128.8 380.7v7.7c0 .9.8 1.6 1.6 1.6h16.9c.9 0 1.6-.8 1.6-1.6v-7.7c.1-.8-.5-1.6-1.4-1.6H-127c-1 0-1.8.8-1.8 1.6zm1.6 4.8v-1.8c0-.1.1-.3.3-.3s.1.1.1.3v1.8c0 .1-.1.1-.3.1s-.1 0-.1-.1zm17.6-.9c0 .4-.4.8-.8.8s-.8-.4-.8-.8.4-.8.8-.8c.5 0 .8.2.8.8zm-2.3-4.3v8.4h-13.5v-8.4h13.5z"/><path class="st0" d="M-63.1 381h3v3h-3z"/><path class="st1" d="M-1.1 400.8c.4 2.3-.1 3.5-2.2 5.4-2 1.9-3 2.5-4 4s-1.8 2.9-3.7 3.5c-2 .6-5.6.1-7.8-.3s-5.8-.6-8.3-1.2c-2.5-.5-3.5-1-3.5-1s-1.4-.1-1.8-2.1c-.4-2-.6-4.1-.6-4.1s-2.6-1.7-4.2-4.8c-1.6-3.1-2.6-8.7-2.5-12.3s.2-4.3 1-4.4.9.9 1.3 2.8 1.1 4.8 3.1 7.2c2 2.4 2.8 3.6 2.8 3.6s2.2-.2 4.1-2.6c1.9-2.4 3.5-3.8 4.2-4.5.7-.7 1.3-1.4 2.1-1.5.8 0 1.4.9 2.1.8.4 0 1-1.2 2.2-1.5 1.2-.3 3.1.3 4.8 1.6 1.7 1.2 3.1 2.7 3.1 2.7s1.2-2.7 2.2-5.1.9-3.9 1-5.2c0-1.3.1-1.7.8-1.9s1.5 1.5 2.2 3.5c.6 2 1.4 4.9 1.1 7.9-.3 2.9-1.6 5.5-1.6 5.5s1.6 1.8 2.1 4zm-.6 1.5c.1-1.6-.7-3.6-2.2-5.4 1.4-2.6 1.7-6.4 1.4-9s-1.2-5.1-2.5-7.1c0 2.2-.4 4.6-.9 6.4-.5 1.8-1.7 3.6-2.8 5.8-1.2-.6-2.7-2.1-3.8-2.9-1.1-.8-2.5-1.7-3.9-1.5-1.4.2-1.7 1.4-2.5 1.6-.8.2-1.4-.9-2.1-.9-.7 0-1.8 1.5-3.2 2.6s-2.4 3.1-4.2 4.7c-1.7 1.6-3.5 1.3-3.5 1.3s-.8-1.2-2.3-2.8c-1.6-1.6-2.4-3.7-3.3-6.2-1-2.5-1-4.6-1.2-4.5s-.6 3.5-.4 6.4c.3 2.9 1 6.7 2.7 9.6s4.1 4.4 4.1 4.4.1 2.5.5 4.2c.4 1.8 1.4 1.4 1.4 1.4s.3.3 2.1.8 6.3 1.2 8.7 1.4c2.3.2 4.9.7 6.7.6s2.8-.7 3.6-1.8c.7-1 2.6-3.2 4.5-4.9 1.9-1.7 3-2.6 3.1-4.2z"/><path class="st2" d="M-9.3 411.5c-.7 1-1.8 1.6-3.6 1.8-1.8.1-4.3-.3-6.7-.6-2.3-.2-6.9-.9-8.7-1.4s-2.1-.8-2.1-.8-.9.3-1.4-1.4c-.4-1.8-.5-4.2-.5-4.2s-2.4-1.5-4.1-4.4-2.4-6.7-2.7-9.6c-.3-2.9.2-6.3.4-6.4.2-.1.3 2 1.2 4.5 1 2.5 1.8 4.6 3.3 6.2 1.6 1.6 2.3 2.8 2.3 2.8s1.8.3 3.5-1.3 2.7-3.5 4.2-4.7c1.4-1.1 2.5-2.6 3.2-2.6s1.3 1 2.1.9c.8-.1 1.1-1.4 2.5-1.6 1.4-.2 2.8.6 3.9 1.5 1.1.8 2.6 2.4 3.8 2.9 1-2.2 2.2-4 2.8-5.8.5-1.8 1-4.2.9-6.4 1.4 2 2.2 4.5 2.5 7.1s0 6.4-1.4 9c1.4 1.8 2.3 3.8 2.2 5.4-.2 1.6-1.2 2.6-3.1 4.3-1.9 1.7-3.8 3.8-4.5 4.8zm-22.8-7c.8.5.7.6.7.6h-.4s.1 2.4.5 3.8c.5 1.5.9 1.3.9 1.3s1.1.6 4.1 1.2 5.9.9 10.2 1.6 5.4-.2 6.2-1 2.1-3.1 4.6-5.4c2.6-2.3 3.3-2.9 3.1-5.2-.1-1.4-1.1-2.8-1.7-3.6-.4-.4-.6-.7-.6-.7s1.1-1.6 1.5-5.3c.5-3.7-.3-6.7-1.8-9.7.2 2.6-.2 5.1-1.2 8.3-1 3.1.3 5 .2 5.3-1.5-2.2-1-3.9 0-7.2-.9 1.3-1.2 2.2-2.8 5.2-1-.3-3.3-2.2-4.9-3.7-1.6-1.6-3.4-.6-4.1 0-.7.6-.7.9-1.5.9-.7 0-1.1-.2-1.5-.8s-1.1-.3-1.4.3c-.4.6-1.2 1.1-2.2 2-1.1.9-1.6 2-2.7 3.4s-2.7 2.4-4.8 2.3c1.5 2.3.9 4.1.8 4.3-.1.2-.3.4-.5-.1.4-2.1 0-3.4-1.4-5-1.3-1.6-3.6-3.6-5.9-10.5-.1 2.5.1 7.8 1.6 11.4 1.7 3.5 4.3 5.8 5 6.3z"/><path class="st3" d="M-4.7 382c1.5 3 2.3 6 1.8 9.7-.5 3.7-1.5 5.3-1.5 5.3s.3.3.6.7c-.2 3.4-1.6 6.8-2.6 8-1 1.2-3.7 4.1-6 4.9-2.4.8-7.6.8-11.2-.2-3.6-1-6.4-3.8-7.8-5.4 0 0 .1-.1-.7-.6s-3.4-2.7-4.9-6.3c-1.5-3.5-1.7-8.9-1.6-11.4 2.3 6.8 4.5 8.9 5.9 10.5 1.3 1.6 1.8 2.9 1.4 5 .2.4.5.2.5.1.1-.2.7-1.9-.8-4.3 2.1.1 3.7-.9 4.8-2.3 1.1-1.4 1.7-2.6 2.7-3.4 1.1-.9 1.8-1.4 2.2-2 .4-.6 1-1 1.4-.3.4.6.7.9 1.5.8.8-.1.8-.4 1.5-.9.7-.6 2.5-1.6 4.1 0 1.5 1.6 3.8 3.4 4.9 3.7 1.6-3 1.9-3.9 2.8-5.2-1 3.2-1.5 4.9 0 7.2.1-.3-1.2-2.2-.2-5.3 1-3.1 1.4-5.6 1.2-8.3zm-.4 13c1.5.1 2.1-2 2.1-5.5s-1.5-6.3-1.5-6.3.2 3.2-.7 5.6c-.8 2.5-.9 5.5.1 6.2zm-26.6 7.1c.6-2.6-.9-4-3.5-6.9-2.6-3-3.2-6.8-3.2-6.8s.2 3.7 1 6.3c.8 2.6 1.8 5.5 5.7 7.4z"/><path class="st4" d="M-35.2 395.1c2.6 3 4.1 4.3 3.5 6.9-3.8-1.9-4.9-4.8-5.7-7.4-.8-2.6-1-6.3-1-6.3s.6 3.8 3.2 6.8zm32.2-5.5c0 3.5-.6 5.6-2.1 5.5-1-.7-.9-3.7 0-6.2.9-2.4.7-5.6.7-5.6s1.4 2.8 1.4 6.3zm.9 11.7c.2 2.3-.5 2.8-3.1 5.2-2.6 2.3-3.8 4.6-4.6 5.4-.8.8-1.9 1.7-6.2 1-4.3-.7-7.3-.9-10.2-1.6-3-.6-4.1-1.2-4.1-1.2s-.5.2-.9-1.3c-.5-1.5-.5-3.8-.5-3.8h.4c1.3 1.6 4.1 4.4 7.8 5.4 3.6 1 8.9 1 11.2.2 2.4-.8 5-3.7 6-4.9 1-1.2 2.4-4.6 2.6-8 .5.8 1.5 2.2 1.6 3.6z"/><linearGradient id="SVGID_1_" gradientUnits="userSpaceOnUse" x1="-656.298" y1="-5105.059" x2="-654.41" y2="-5105.059" gradientTransform="translate(649.98 5493.703)"><stop offset=".468" stop-color="#b4e2ff"/><stop offset="1" stop-color="#91cbf5"/></linearGradient><path class="st5" d="M-5.1 395c-.1.2-.7.3-.8 0-1.2-3.1.2-4.8.9-8.2.4-2.6.3-3.3.3-4.7.1.2.1.2.2.5.4 5.7-.9 6-1.2 8.8-.3 2.3.1 3.2.6 3.6z"/><linearGradient id="SVGID_2_" gradientUnits="userSpaceOnUse" x1="-688.554" y1="-5099.07" x2="-681.13" y2="-5099.07" gradientTransform="translate(649.98 5493.703)"><stop offset="0" stop-color="#91cbf5"/><stop offset=".5" stop-color="#b4e2ff"/></linearGradient><path class="st6" d="M-31.7 402.1c-.1.2.3.5.4.3.1-.8.4-1.7-.1-3.1-.4-1.1-1.5-2.5-3.5-4.8-1.7-2.3-3.2-6.4-3.6-7.7v.4c.3 2.4 1.3 5.3 3.1 7.6 1.4 2.2 4.6 4.2 3.7 7.3z"/><path class="st7" d="M-19.3 407.5s0-1.9-1.5-3.3c-.4-.3-.6.1-.5.2.2 1.1-1 1.9-1.1 2.8 1.7.6 3.1.3 3.1.3z"/><path class="st8" d="M-22.1 407.2c.3-.9.9-.9 1.3-2.3.9.5 1.3 2.7 1.1 2.6-1.8.1-2.5-.3-2.4-.3z"/><path class="st9" d="M-11.9 410.7c-2.5 1.2-5.1.9-6.2.3 0 0 2.4 0 5.4-1.1 2.3-.9 4.6-2.5 4.6-2.5s-1.3 2.1-3.8 3.3z"/><path class="st8" d="M-15.5 397.7c.7 1.1.2 3-2.8 4.2-.5.2-1 .4-1.4.5-1.7.4-3.5.1-4.6-.4-1.3-.5-1.3-2-.8-3.3.5-1.3 1.2-1.5 3.5-3.3 2.2-1.8 3.6-1.6 5-.5.2.3.3.7.5 1 .1.7.3 1.3.6 1.8zm-2 1.5c.7 0-.1-2-.8-1.8-.4.1.1 1.7.8 1.8z"/><path d="M-18.3 397.4c.7-.2 1.5 1.8.8 1.8-.7-.1-1.2-1.7-.8-1.8z"/><path class="st10" d="M-20.3 392.7c.8-.3 2.5.1 3.7 2.2-1.4-1.1-2.8-1.2-5 .5-2.3 1.8-3 2-3.5 3.3-.5 1.3-.5 2.8.8 3.3 1.1.5 2.9.7 4.6.4-2.3.8-4.2 1.1-5.6.3-1.7-.9-2.2-3.5-.5-5.4 1.8-1.8 4.6-4.2 5.5-4.6z"/><path class="st7" d="M-15.4 397.7c.1.1.1.1.1.2 0 0 0 .1.1.2 0 .1.1.3.1.4v1.2c0 .1-.1.1-.1.2 0 0 0 .1-.1.1 0 0 0 .1-.1.1-.1.1-.2.2-.3.4l-.7.7-.9.6s-.1 0-.1.1c0 0-.1 0-.1.1 0 0-.1 0-.1.1s-.1 0-.1.1c0 0-.1 0-.1.1 0 0-.1 0-.1.1-.1 0-.2.1-.3.1-.4.2-.8.3-1.2.5-.1 0-.2.1-.3.1s-.1 0-.2.1c-.1 0-.1 0-.2.1-.1 0-.2.1-.3.1h-.4c-.4.1-.9.2-1.4.3s-1 .1-1.5 0c-.2 0-.5-.1-.7-.2-.2-.1-.5-.2-.7-.3h-.1l-.1-.1s-.1 0-.1-.1l-.1-.1s-.1 0-.1-.1l-.1-.1c-.1 0-.1-.1-.1-.1-.2-.2-.3-.4-.5-.6-.3-.5-.4-1-.4-1.5s.1-1.1.2-1.5c.1-.2.2-.5.3-.7l.1-.1s0-.1.1-.1c0-.1.1-.1.1-.2.1-.1.2-.2.2-.3l.1-.1.1-.1.1-.1.3-.3c.2-.2.3-.4.5-.5l1-1 2.1-1.8c.2-.1.3-.3.5-.4.2-.1.3-.2.5-.4.1-.1.2-.1.3-.2h.8c.4 0 .8.2 1.1.3 0 0 .1 0 .1.1 0 0 .1 0 .1.1.1 0 .1.1.2.1.1.1.3.2.4.3l.6.6c.2.2.3.4.4.6.1.2.2.4.3.5 0 .1.1.2.1.2 0 .1.1.1.1.2s0 .1.1.1v.2c0 .1 0 .1-.1.1h-.1v-.2s0-.1-.1-.1c0-.1-.1-.1-.1-.2s-.1-.1-.1-.2c-.1-.1-.2-.3-.3-.5-.1-.2-.3-.4-.4-.6l-.6-.6c-.1-.1-.2-.2-.4-.3-.1 0-.1-.1-.2-.1 0 0-.1 0-.1-.1 0 0-.1 0-.1-.1-.1-.1-.3-.1-.5-.2-.2 0-.3-.1-.5-.1h-1.1c-.2.1-.3.2-.5.3s-.3.2-.5.4c-.3.3-.7.5-1 .8-.3.3-.7.6-1 .9-.3.3-.7.6-1 1l-.5.5-.3.3-.1.1-.1.1c-.1.1-.1.2-.2.3l-.1.1v.2l-.3.6c-.2.4-.2.9-.2 1.4s.1.9.4 1.3.6.7.9 1h.8c.2.1.4.1.7.2.5.1.9.1 1.4 0 .5 0 .9-.1 1.3-.2h.4c.1 0 .2-.1.3-.1h.2c.1 0 .1 0 .2-.1.1 0 .2-.1.3-.1.4-.1.8-.3 1.2-.4.1 0 .2-.1.3-.1 0 0 .1 0 .1-.1 0 0 .1 0 .1-.1 0 0 .1 0 .1-.1 0 0 .1 0 .1-.1 0 0 .1 0 .1-.1 0 0 .1 0 .1-.1.3-.2.6-.3.9-.5.3-.2.5-.4.7-.6l.3-.3s0-.1.1-.1c0 0 0-.1.1-.1 0-.1.1-.1.1-.2v-1.2c0-.2-.1-.3-.1-.4 0-.1 0-.1-.1-.1v-.3c-.1.7 0 .7 0 .8zm-14.1 8.7s.1-.1 0 0v-.2c0-.1.1-.2.1-.3v-.2c0-.1.1-.1.1-.2s.1-.1.1-.2l.1-.1.1-.1.1-.1h.3l.1-.1c.2-.1.3-.2.5-.3.1 0 .2-.1.3-.1h.2c.2-.1.4-.1.6-.1h1.5c.1 0 .3 0 .4.1.1 0 .2 0 .3.1h.3c.1 0 .1.1.1.1l-.1.1h-3.2c-.1 0-.2.1-.3.1-.2.1-.3.2-.5.2-.1.1-.3.2-.4.3l-.1.1-.1.1c0 .1-.1.1-.1.2s-.1.1-.1.2c0 0 0 .1-.1.1v.1c-.1.1-.1.2-.1.3v.3c0 .1-.1.1-.1.1.1-.4 0-.5 0-.5zm22.9-8l.1-.1s.1 0 .1-.1h1c.1 0 .2 0 .3.1h.3c.1 0 .2.1.3.1 0 0 .1 0 .1.1 0 0 .1 0 .1.1 0 0 .1 0 .1.1 0 0 .1 0 .1.1 0 0 .1 0 .1.1l.1.1.1.1v.2h-.1l-.1-.1h-.1l-.1-.1c-.1 0-.1-.1-.2-.1s-.1-.1-.2-.1-.2-.1-.2-.1l-.2-.1c-.1 0-.2 0-.3-.1h-1c-.4-.1-.4-.2-.3-.2z"/><path class="st2" d="M-7.4 402.8c0-.3 0-.5-.1-.7-.2-.8-1.1-2.4-1.1-2.4s-.2-.7.7-.6c.8 0 2.2.8 2.3.8-.4 1.7-1.8 2.8-1.8 2.9z"/><path class="st11" d="M-7.1 402.6c.2-.8-1.2-3.1-1.2-3.1s.6 0 2.6.9c0 .3-.8 1.8-1.4 2.2z"/><path class="st7" d="M-25.9 404.3c0 .1 0 .1 0 0 0 .1.1.2.1.3.1.2.2.4.4.7.1.1.2.3.4.4.1.1.3.3.5.4 0 0 .1.1.2.1s.1.1.2.1c0 0 .1 0 .1.1 0 0 .1 0 .1.1h.2c.1 0 .1.1.2.1s.1.1.2.1.1.1.2.1h.5c.1 0 .1 0 .2.1.2 0 .3.1.5.1h5.2c.1 0 .2 0 .3-.1l1.2-.3h.2c.1 0 .2-.1.3-.1s.2-.1.3-.1l.3-.1c.4-.1.8-.3 1.1-.4.4-.1.7-.3 1.1-.5.7-.3 1.4-.7 2.1-1.1.3-.2.7-.4 1-.6l.9-.6c.6-.4 1.1-.8 1.5-1.3.2-.2.4-.5.5-.7.1-.2.3-.5.4-.7.1-.2.2-.4.2-.6v-.5c.1-.3.1-.6.1-.8v-.3c0-.1.1-.1.1-.1.1 0 .1 0 .1.1v.3c0 .2 0 .5-.1.8 0 .4-.1.8-.3 1.3 0 .1-.1.1-.1.2v.1c-.1.1-.1.3-.2.4 0 .1-.1.1-.1.2s-.1.1-.1.2-.1.1-.1.2l-.1.1c-.4.5-.9.9-1.5 1.3l-.9.6c-.3.2-.6.4-1 .6-.7.4-1.4.7-2.1 1.1-.4.2-.7.3-1.1.5-.4.1-.8.3-1.2.4l-.3.1c-.1 0-.2.1-.3.1s-.2.1-.3.1h-.3l-1.2.3c-.1 0-.2 0-.3.1h-5.3c-.2 0-.3-.1-.5-.1-.1 0-.2 0-.2-.1h-.5c-.1 0-.1-.1-.2-.1s-.1-.1-.2-.1-.1-.1-.2-.1c-.3-.1-.5-.3-.7-.4-.2-.2-.4-.3-.5-.5l-.1-.1-.1-.1v-.3c-.2-.3-.3-.6-.4-.8 0-.1-.1-.2-.1-.2v-.1c0-.1 0-.1.1-.1-.4.1-.4.2-.4.2z"/><path class="st8" d="M-8.6 396.9c.1.6.1 1.2-.3 1.6-.8.9-3.1.8-4.6.6-.5-.1-1-.3-1.4-.6-.2-2.7-.4-4.2.6-4.9.9-.6 3.9 1 5.7 3.3zm-4.8.7c.4-.1-.2-1.5-.8-1.4-.2 0 .4 1.5.8 1.4z"/><path class="st10" d="M-16.1 396v-.1c-.2-1.1-.1-3.8 1.2-4.3.8-.3 2.6.6 4.5 2.3 1 1 1.7 2.1 1.9 2.9-1.8-2.3-4.7-3.9-5.7-3.3s-.8 2.2-.6 4.9c-.2-.2-.4-.5-.6-.7-.4-.5-.6-1.1-.7-1.7z"/><path d="M-14.1 396.2c.6 0 1.2 1.3.8 1.4-.5.1-1.1-1.4-.8-1.4z"/><path class="st7" d="M-15 391.5h.4c.2 0 .5 0 .8.1s.7.3 1.1.5c.4.2.9.5 1.3.9.2.2.5.4.7.6l.3.3.1.1.2.2c.2.2.4.5.7.8.1.1.2.3.3.4.1.2.2.3.3.5.2.3.3.7.4 1 0 .2.1.4.1.6s0 .4-.1.6c0 0 0 .1-.1.1v.2l-.1.1-.1.1c-.1.1-.3.2-.5.3s-.4.1-.6.2c-.2 0-.4.1-.6.1-.4.1-.8.1-1.1.1h-2.1c-.2 0-.4-.1-.5-.2-.2-.1-.3-.2-.5-.3-.3-.2-.5-.5-.7-.8s-.3-.6-.4-.9c-.1-.3-.2-.6-.2-.9-.1-.3-.1-.6-.1-.9 0-.6 0-1.1.1-1.6s.2-.9.4-1.2c.1-.1.2-.3.3-.4s.2-.2.3-.2c-.3-.3-.2-.3-.1-.4zm.1.3s-.1 0 0 0c-.1 0-.1.1-.2.1s-.1.1-.2.2-.2.2-.2.3c-.2.3-.3.6-.4 1.1-.1.4-.1.9-.1 1.5v.4c0 .1 0 .3.1.4.1.3.1.6.2.9.1.3.2.6.4.9.2.3.4.5.6.8.3.2.6.4.9.5h2.1c.4 0 .7 0 1.1-.1.2 0 .4-.1.5-.1.2 0 .3-.1.5-.2s.3-.2.4-.3h.1s0-.1.1-.1v-.3c.1-.2.1-.3.1-.5s0-.3-.1-.5c-.1-.3-.2-.7-.4-1-.1-.2-.2-.3-.3-.4s-.2-.3-.3-.4c-.2-.3-.4-.5-.6-.7l-.1-.1-.1-.1-.1-.1-.3-.3c-.2-.2-.4-.4-.7-.6-.4-.3-.9-.6-1.3-.8-.4-.2-.8-.4-1.1-.5s-.5-.1-.7-.1h-.1c.3.1.3.1.2.1.1 0 0 0 0 0z"/><path class="st9" d="M-12.5 402.5c-.1-.8-.2-1.9.7-2.3-.1-.6-1.1.1-1.3.3s-.2.5-.4.7c-.6.6-1.3.2-2 .2-.8-.1-1.4.6-.3.5.4 0 .6 0 .9.1.3.1.5.3.8.5.3.3.8 1.1 1.3.7.2-.1.2-.5.3-.7z"/><path class="st0" d="M-65.1 387h1v1h-1zm0 1h1v1h-1zm0 1h1v1h-1zm0 1h1v1h-1zm2-3h1v1h-1zm0 1h1v1h-1zm0 1h1v1h-1zm0 1h1v1h-1zm0 1h1v1h-1zm1 0h1v1h-1zm-3-12v7h7v-7h-7zm6 6h-5v-5h5v5zm-4 10h3v3h-3z"/><path class="st0" d="M-65.1 393v7h7v-7h-7zm6 6h-5v-5h5v5zm10-18h3v3h-3z"/><path class="st0" d="M-51.1 379v7h7v-7h-7zm6 6h-5v-5h5v5zm-17 4h1v1h-1zm0-2h1v1h-1zm1 0h1v1h-1zm1 0h1v1h-1zm1 0h1v1h-1zm1 1h1v1h-1zm-2 0h1v1h-1zm0 1h1v1h-1zm1 0h1v1h-1zm-1 1h1v1h-1zm-1 0h1v1h-1zm1 1h1v1h-1zm1 0h1v1h-1zm2-2h1v1h-1zm0 1h1v1h-1zm1-2h1v1h-1zm0-1h1v1h-1zm1 0h1v1h-1zm0-1h1v1h-1zm0-1h1v1h-1zm0-1h1v1h-1zm0-1h1v1h-1zm0-1h1v1h-1zm0-1h1v1h-1zm1-2h1v1h-1zm-1 1h1v1h-1zm-1 1h1v1h-1zm-1 0h1v1h-1zm1 1h1v1h-1zm-1 0h1v1h-1zm1 1h1v1h-1zm-1 0h1v1h-1zm0 1h1v1h-1zm0 1h1v1h-1zm0 1h1v1h-1zm1 0h1v1h-1zm2-3h1v1h-1zm1 0h1v1h-1zm1 0h1v1h-1zm-1-1h1v1h-1zm0-1h1v1h-1zm0-1h1v1h-1zm1 1h1v1h-1zm0-1h1v1h-1zm0-1h1v1h-1zm0 6h1v1h-1zm0 1h1v1h-1zm1 1h1v1h-1zm1 0h1v1h-1zm1 0h1v1h-1zm1 0h1v1h-1zm1 0h1v1h-1zm-1 1h1v1h-1zm1 0h1v1h-1zm2 0h1v1h-1zm-1 1h1v1h-1zm-1 0h1v1h-1zm-2 0h1v1h-1zm0 1h1v1h-1zm1 0h1v1h-1zm1 0h1v1h-1zm1 0h1v1h-1zm1 0h1v1h-1zm-3 1h1v1h-1zm-3-3h1v1h-1zm-1 0h1v1h-1zm-2 0h1v1h-1zm1 1h1v1h-1zm0 1h1v1h-1zm-2-1h1v1h-1zm1 1h1v1h-1zm-1 0h1v1h-1zm4-1h1v1h-1zm0 1h1v1h-1zm-1 1h1v1h-1zm-2 0h1v1h-1zm0 1h1v1h-1zm-1 0h1v1h-1zm-1 0h1v1h-1zm-1 0h1v1h-1zm2 1h1v1h-1zm4 0h1v1h-1zm-1 0h1v1h-1zm-1 0h1v1h-1zm0 1h1v1h-1zm1 0h1v1h-1zm3-2h1v1h-1zm0 1h1v1h-1zm0 1h1v1h-1zm4-2h1v1h-1zm-2 0h1v1h-1zm0 1h1v1h-1zm0 1h1v1h-1zm2 2h1v1h-1zm-10-1h1v1h-1zm1 0h1v1h-1zm1 0h1v1h-1zm-3-1h1v1h-1zm-1 0h1v1h-1zm0 1h1v1h-1zm0 1h1v1h-1zm0 1h1v1h-1zm1 0h1v1h-1zm0 1h1v1h-1zm1 1h1v1h-1zm-1 0h1v1h-1zm-1 0h1v1h-1zm4-3h1v1h-1zm-1 0h1v1h-1zm-1 0h1v1h-1zm2 1h1v1h-1zm-1 0h1v1h-1zm1 1h1v1h-1zm-1 0h1v1h-1zm1 1h1v1h-1zm1-4h1v1h-1zm1 0h1v1h-1zm1 0h1v1h-1zm1 0h1v1h-1zm1 0h1v1h-1zm-4 2h1v1h-1zm1 0h1v1h-1zm1 0h1v1h-1zm0-1h1v1h-1zm1 0h1v1h-1zm1 0h1v1h-1zm-2 2h1v1h-1zm0 1h1v1h-1zm2-2h1v1h-1zm-1 1h1v1h-1zm0 1h1v1h-1zm2-1h1v1h-1zm-1 0h1v1h-1zm0 1h1v1h-1zm2 0h1v1h-1z"/></svg>